<mxfile host="app.diagrams.net" modified="2020-11-17T20:58:48.799Z" agent="5.0 (Windows NT 10.0; Win64; x64) AppleWebKit/537.36 (KHTML, like Gecko) Chrome/86.0.4240.183 Safari/537.36" etag="jPH7OEmXloZbp7FRFgE1" version="13.9.9" type="github">
  <diagram id="6a731a19-8d31-9384-78a2-239565b7b9f0" name="Page-1">
    <mxGraphModel dx="782" dy="767" grid="1" gridSize="10" guides="1" tooltips="1" connect="1" arrows="1" fold="1" page="1" pageScale="1" pageWidth="1169" pageHeight="827" background="#ffffff" math="0" shadow="0">
      <root>
        <mxCell id="0" />
        <mxCell id="1" parent="0" />
        <mxCell id="wfhcFxgOFbOCd524HvgT-1542" value="Employee" style="shape=table;startSize=30;container=1;collapsible=1;childLayout=tableLayout;fixedRows=1;rowLines=0;fontStyle=1;align=center;resizeLast=1;" vertex="1" parent="1">
          <mxGeometry x="220" y="200" width="180" height="190" as="geometry" />
        </mxCell>
        <mxCell id="wfhcFxgOFbOCd524HvgT-1543" value="" style="shape=partialRectangle;collapsible=0;dropTarget=0;pointerEvents=0;fillColor=none;top=0;left=0;bottom=1;right=0;points=[[0,0.5],[1,0.5]];portConstraint=eastwest;" vertex="1" parent="wfhcFxgOFbOCd524HvgT-1542">
          <mxGeometry y="30" width="180" height="30" as="geometry" />
        </mxCell>
        <mxCell id="wfhcFxgOFbOCd524HvgT-1544" value="PK" style="shape=partialRectangle;connectable=0;fillColor=none;top=0;left=0;bottom=0;right=0;fontStyle=1;overflow=hidden;" vertex="1" parent="wfhcFxgOFbOCd524HvgT-1543">
          <mxGeometry width="30" height="30" as="geometry" />
        </mxCell>
        <mxCell id="wfhcFxgOFbOCd524HvgT-1545" value="empid" style="shape=partialRectangle;connectable=0;fillColor=none;top=0;left=0;bottom=0;right=0;align=left;spacingLeft=6;fontStyle=5;overflow=hidden;" vertex="1" parent="wfhcFxgOFbOCd524HvgT-1543">
          <mxGeometry x="30" width="150" height="30" as="geometry" />
        </mxCell>
        <mxCell id="wfhcFxgOFbOCd524HvgT-1546" value="" style="shape=partialRectangle;collapsible=0;dropTarget=0;pointerEvents=0;fillColor=none;top=0;left=0;bottom=0;right=0;points=[[0,0.5],[1,0.5]];portConstraint=eastwest;" vertex="1" parent="wfhcFxgOFbOCd524HvgT-1542">
          <mxGeometry y="60" width="180" height="30" as="geometry" />
        </mxCell>
        <mxCell id="wfhcFxgOFbOCd524HvgT-1547" value="" style="shape=partialRectangle;connectable=0;fillColor=none;top=0;left=0;bottom=0;right=0;editable=1;overflow=hidden;" vertex="1" parent="wfhcFxgOFbOCd524HvgT-1546">
          <mxGeometry width="30" height="30" as="geometry" />
        </mxCell>
        <mxCell id="wfhcFxgOFbOCd524HvgT-1548" value="firstName" style="shape=partialRectangle;connectable=0;fillColor=none;top=0;left=0;bottom=0;right=0;align=left;spacingLeft=6;overflow=hidden;fontStyle=1" vertex="1" parent="wfhcFxgOFbOCd524HvgT-1546">
          <mxGeometry x="30" width="150" height="30" as="geometry" />
        </mxCell>
        <mxCell id="wfhcFxgOFbOCd524HvgT-1549" value="" style="shape=partialRectangle;collapsible=0;dropTarget=0;pointerEvents=0;fillColor=none;top=0;left=0;bottom=0;right=0;points=[[0,0.5],[1,0.5]];portConstraint=eastwest;" vertex="1" parent="wfhcFxgOFbOCd524HvgT-1542">
          <mxGeometry y="90" width="180" height="30" as="geometry" />
        </mxCell>
        <mxCell id="wfhcFxgOFbOCd524HvgT-1550" value="" style="shape=partialRectangle;connectable=0;fillColor=none;top=0;left=0;bottom=0;right=0;editable=1;overflow=hidden;" vertex="1" parent="wfhcFxgOFbOCd524HvgT-1549">
          <mxGeometry width="30" height="30" as="geometry" />
        </mxCell>
        <mxCell id="wfhcFxgOFbOCd524HvgT-1551" value="lastName" style="shape=partialRectangle;connectable=0;fillColor=none;top=0;left=0;bottom=0;right=0;align=left;spacingLeft=6;overflow=hidden;fontStyle=1" vertex="1" parent="wfhcFxgOFbOCd524HvgT-1549">
          <mxGeometry x="30" width="150" height="30" as="geometry" />
        </mxCell>
        <mxCell id="wfhcFxgOFbOCd524HvgT-1552" value="" style="shape=partialRectangle;collapsible=0;dropTarget=0;pointerEvents=0;fillColor=none;top=0;left=0;bottom=0;right=0;points=[[0,0.5],[1,0.5]];portConstraint=eastwest;" vertex="1" parent="wfhcFxgOFbOCd524HvgT-1542">
          <mxGeometry y="120" width="180" height="30" as="geometry" />
        </mxCell>
        <mxCell id="wfhcFxgOFbOCd524HvgT-1553" value="" style="shape=partialRectangle;connectable=0;fillColor=none;top=0;left=0;bottom=0;right=0;editable=1;overflow=hidden;" vertex="1" parent="wfhcFxgOFbOCd524HvgT-1552">
          <mxGeometry width="30" height="30" as="geometry" />
        </mxCell>
        <mxCell id="wfhcFxgOFbOCd524HvgT-1554" value="email" style="shape=partialRectangle;connectable=0;fillColor=none;top=0;left=0;bottom=0;right=0;align=left;spacingLeft=6;overflow=hidden;fontStyle=1" vertex="1" parent="wfhcFxgOFbOCd524HvgT-1552">
          <mxGeometry x="30" width="150" height="30" as="geometry" />
        </mxCell>
        <mxCell id="wfhcFxgOFbOCd524HvgT-1601" value="" style="shape=partialRectangle;collapsible=0;dropTarget=0;pointerEvents=0;fillColor=none;top=0;left=0;bottom=0;right=0;points=[[0,0.5],[1,0.5]];portConstraint=eastwest;" vertex="1" parent="wfhcFxgOFbOCd524HvgT-1542">
          <mxGeometry y="150" width="180" height="30" as="geometry" />
        </mxCell>
        <mxCell id="wfhcFxgOFbOCd524HvgT-1602" value="FK" style="shape=partialRectangle;connectable=0;fillColor=none;top=0;left=0;bottom=0;right=0;editable=1;overflow=hidden;fontStyle=1" vertex="1" parent="wfhcFxgOFbOCd524HvgT-1601">
          <mxGeometry width="30" height="30" as="geometry" />
        </mxCell>
        <mxCell id="wfhcFxgOFbOCd524HvgT-1603" value="deptid" style="shape=partialRectangle;connectable=0;fillColor=none;top=0;left=0;bottom=0;right=0;align=left;spacingLeft=6;overflow=hidden;fontStyle=1" vertex="1" parent="wfhcFxgOFbOCd524HvgT-1601">
          <mxGeometry x="30" width="150" height="30" as="geometry" />
        </mxCell>
        <mxCell id="wfhcFxgOFbOCd524HvgT-1555" value="Deparment" style="shape=table;startSize=30;container=1;collapsible=1;childLayout=tableLayout;fixedRows=1;rowLines=0;fontStyle=1;align=center;resizeLast=1;" vertex="1" parent="1">
          <mxGeometry x="220" y="460" width="180" height="160" as="geometry" />
        </mxCell>
        <mxCell id="wfhcFxgOFbOCd524HvgT-1556" value="" style="shape=partialRectangle;collapsible=0;dropTarget=0;pointerEvents=0;fillColor=none;top=0;left=0;bottom=1;right=0;points=[[0,0.5],[1,0.5]];portConstraint=eastwest;" vertex="1" parent="wfhcFxgOFbOCd524HvgT-1555">
          <mxGeometry y="30" width="180" height="30" as="geometry" />
        </mxCell>
        <mxCell id="wfhcFxgOFbOCd524HvgT-1557" value="PK" style="shape=partialRectangle;connectable=0;fillColor=none;top=0;left=0;bottom=0;right=0;fontStyle=1;overflow=hidden;" vertex="1" parent="wfhcFxgOFbOCd524HvgT-1556">
          <mxGeometry width="30" height="30" as="geometry" />
        </mxCell>
        <mxCell id="wfhcFxgOFbOCd524HvgT-1558" value="deptid" style="shape=partialRectangle;connectable=0;fillColor=none;top=0;left=0;bottom=0;right=0;align=left;spacingLeft=6;fontStyle=5;overflow=hidden;" vertex="1" parent="wfhcFxgOFbOCd524HvgT-1556">
          <mxGeometry x="30" width="150" height="30" as="geometry" />
        </mxCell>
        <mxCell id="wfhcFxgOFbOCd524HvgT-1559" value="" style="shape=partialRectangle;collapsible=0;dropTarget=0;pointerEvents=0;fillColor=none;top=0;left=0;bottom=0;right=0;points=[[0,0.5],[1,0.5]];portConstraint=eastwest;" vertex="1" parent="wfhcFxgOFbOCd524HvgT-1555">
          <mxGeometry y="60" width="180" height="30" as="geometry" />
        </mxCell>
        <mxCell id="wfhcFxgOFbOCd524HvgT-1560" value="" style="shape=partialRectangle;connectable=0;fillColor=none;top=0;left=0;bottom=0;right=0;editable=1;overflow=hidden;" vertex="1" parent="wfhcFxgOFbOCd524HvgT-1559">
          <mxGeometry width="30" height="30" as="geometry" />
        </mxCell>
        <mxCell id="wfhcFxgOFbOCd524HvgT-1561" value="name" style="shape=partialRectangle;connectable=0;fillColor=none;top=0;left=0;bottom=0;right=0;align=left;spacingLeft=6;overflow=hidden;fontStyle=1" vertex="1" parent="wfhcFxgOFbOCd524HvgT-1559">
          <mxGeometry x="30" width="150" height="30" as="geometry" />
        </mxCell>
        <mxCell id="wfhcFxgOFbOCd524HvgT-1562" value="" style="shape=partialRectangle;collapsible=0;dropTarget=0;pointerEvents=0;fillColor=none;top=0;left=0;bottom=0;right=0;points=[[0,0.5],[1,0.5]];portConstraint=eastwest;" vertex="1" parent="wfhcFxgOFbOCd524HvgT-1555">
          <mxGeometry y="90" width="180" height="30" as="geometry" />
        </mxCell>
        <mxCell id="wfhcFxgOFbOCd524HvgT-1563" value="" style="shape=partialRectangle;connectable=0;fillColor=none;top=0;left=0;bottom=0;right=0;editable=1;overflow=hidden;" vertex="1" parent="wfhcFxgOFbOCd524HvgT-1562">
          <mxGeometry width="30" height="30" as="geometry" />
        </mxCell>
        <mxCell id="wfhcFxgOFbOCd524HvgT-1564" value="phone" style="shape=partialRectangle;connectable=0;fillColor=none;top=0;left=0;bottom=0;right=0;align=left;spacingLeft=6;overflow=hidden;fontStyle=1" vertex="1" parent="wfhcFxgOFbOCd524HvgT-1562">
          <mxGeometry x="30" width="150" height="30" as="geometry" />
        </mxCell>
        <mxCell id="wfhcFxgOFbOCd524HvgT-1565" value="" style="shape=partialRectangle;collapsible=0;dropTarget=0;pointerEvents=0;fillColor=none;top=0;left=0;bottom=0;right=0;points=[[0,0.5],[1,0.5]];portConstraint=eastwest;" vertex="1" parent="wfhcFxgOFbOCd524HvgT-1555">
          <mxGeometry y="120" width="180" height="30" as="geometry" />
        </mxCell>
        <mxCell id="wfhcFxgOFbOCd524HvgT-1566" value="" style="shape=partialRectangle;connectable=0;fillColor=none;top=0;left=0;bottom=0;right=0;editable=1;overflow=hidden;" vertex="1" parent="wfhcFxgOFbOCd524HvgT-1565">
          <mxGeometry width="30" height="30" as="geometry" />
        </mxCell>
        <mxCell id="wfhcFxgOFbOCd524HvgT-1567" value="" style="shape=partialRectangle;connectable=0;fillColor=none;top=0;left=0;bottom=0;right=0;align=left;spacingLeft=6;overflow=hidden;" vertex="1" parent="wfhcFxgOFbOCd524HvgT-1565">
          <mxGeometry x="30" width="150" height="30" as="geometry" />
        </mxCell>
        <mxCell id="wfhcFxgOFbOCd524HvgT-1568" value="Skill" style="shape=table;startSize=30;container=1;collapsible=1;childLayout=tableLayout;fixedRows=1;rowLines=0;fontStyle=1;align=center;resizeLast=1;" vertex="1" parent="1">
          <mxGeometry x="590" y="200" width="180" height="100" as="geometry" />
        </mxCell>
        <mxCell id="wfhcFxgOFbOCd524HvgT-1569" value="" style="shape=partialRectangle;collapsible=0;dropTarget=0;pointerEvents=0;fillColor=none;top=0;left=0;bottom=1;right=0;points=[[0,0.5],[1,0.5]];portConstraint=eastwest;" vertex="1" parent="wfhcFxgOFbOCd524HvgT-1568">
          <mxGeometry y="30" width="180" height="30" as="geometry" />
        </mxCell>
        <mxCell id="wfhcFxgOFbOCd524HvgT-1570" value="PK" style="shape=partialRectangle;connectable=0;fillColor=none;top=0;left=0;bottom=0;right=0;fontStyle=1;overflow=hidden;" vertex="1" parent="wfhcFxgOFbOCd524HvgT-1569">
          <mxGeometry width="30" height="30" as="geometry" />
        </mxCell>
        <mxCell id="wfhcFxgOFbOCd524HvgT-1571" value="skillId" style="shape=partialRectangle;connectable=0;fillColor=none;top=0;left=0;bottom=0;right=0;align=left;spacingLeft=6;fontStyle=5;overflow=hidden;" vertex="1" parent="wfhcFxgOFbOCd524HvgT-1569">
          <mxGeometry x="30" width="150" height="30" as="geometry" />
        </mxCell>
        <mxCell id="wfhcFxgOFbOCd524HvgT-1572" value="" style="shape=partialRectangle;collapsible=0;dropTarget=0;pointerEvents=0;fillColor=none;top=0;left=0;bottom=0;right=0;points=[[0,0.5],[1,0.5]];portConstraint=eastwest;" vertex="1" parent="wfhcFxgOFbOCd524HvgT-1568">
          <mxGeometry y="60" width="180" height="30" as="geometry" />
        </mxCell>
        <mxCell id="wfhcFxgOFbOCd524HvgT-1573" value="" style="shape=partialRectangle;connectable=0;fillColor=none;top=0;left=0;bottom=0;right=0;editable=1;overflow=hidden;" vertex="1" parent="wfhcFxgOFbOCd524HvgT-1572">
          <mxGeometry width="30" height="30" as="geometry" />
        </mxCell>
        <mxCell id="wfhcFxgOFbOCd524HvgT-1574" value="skillDescription" style="shape=partialRectangle;connectable=0;fillColor=none;top=0;left=0;bottom=0;right=0;align=left;spacingLeft=6;overflow=hidden;fontStyle=1" vertex="1" parent="wfhcFxgOFbOCd524HvgT-1572">
          <mxGeometry x="30" width="150" height="30" as="geometry" />
        </mxCell>
        <UserObject label="https://youtu.be/lAtCySGDD48" link="https://youtu.be/lAtCySGDD48" id="wfhcFxgOFbOCd524HvgT-1600">
          <mxCell style="text;whiteSpace=wrap;html=1;" vertex="1" parent="1">
            <mxGeometry x="230" y="50" width="520" height="30" as="geometry" />
          </mxCell>
        </UserObject>
        <mxCell id="wfhcFxgOFbOCd524HvgT-1604" value="Table" style="shape=table;startSize=30;container=1;collapsible=1;childLayout=tableLayout;fixedRows=1;rowLines=0;fontStyle=1;align=center;resizeLast=1;" vertex="1" parent="1">
          <mxGeometry x="590" y="480" width="180" height="130" as="geometry" />
        </mxCell>
        <mxCell id="wfhcFxgOFbOCd524HvgT-1605" value="" style="shape=partialRectangle;collapsible=0;dropTarget=0;pointerEvents=0;fillColor=none;top=0;left=0;bottom=0;right=0;points=[[0,0.5],[1,0.5]];portConstraint=eastwest;" vertex="1" parent="wfhcFxgOFbOCd524HvgT-1604">
          <mxGeometry y="30" width="180" height="30" as="geometry" />
        </mxCell>
        <mxCell id="wfhcFxgOFbOCd524HvgT-1606" value="PK,FK1" style="shape=partialRectangle;connectable=0;fillColor=none;top=0;left=0;bottom=0;right=0;fontStyle=1;overflow=hidden;" vertex="1" parent="wfhcFxgOFbOCd524HvgT-1605">
          <mxGeometry width="60" height="30" as="geometry" />
        </mxCell>
        <mxCell id="wfhcFxgOFbOCd524HvgT-1607" value="empID" style="shape=partialRectangle;connectable=0;fillColor=none;top=0;left=0;bottom=0;right=0;align=left;spacingLeft=6;fontStyle=5;overflow=hidden;" vertex="1" parent="wfhcFxgOFbOCd524HvgT-1605">
          <mxGeometry x="60" width="120" height="30" as="geometry" />
        </mxCell>
        <mxCell id="wfhcFxgOFbOCd524HvgT-1608" value="" style="shape=partialRectangle;collapsible=0;dropTarget=0;pointerEvents=0;fillColor=none;top=0;left=0;bottom=1;right=0;points=[[0,0.5],[1,0.5]];portConstraint=eastwest;" vertex="1" parent="wfhcFxgOFbOCd524HvgT-1604">
          <mxGeometry y="60" width="180" height="30" as="geometry" />
        </mxCell>
        <mxCell id="wfhcFxgOFbOCd524HvgT-1609" value="PK,FK2" style="shape=partialRectangle;connectable=0;fillColor=none;top=0;left=0;bottom=0;right=0;fontStyle=1;overflow=hidden;" vertex="1" parent="wfhcFxgOFbOCd524HvgT-1608">
          <mxGeometry width="60" height="30" as="geometry" />
        </mxCell>
        <mxCell id="wfhcFxgOFbOCd524HvgT-1610" value="skillID" style="shape=partialRectangle;connectable=0;fillColor=none;top=0;left=0;bottom=0;right=0;align=left;spacingLeft=6;fontStyle=5;overflow=hidden;" vertex="1" parent="wfhcFxgOFbOCd524HvgT-1608">
          <mxGeometry x="60" width="120" height="30" as="geometry" />
        </mxCell>
        <mxCell id="wfhcFxgOFbOCd524HvgT-1611" value="" style="shape=partialRectangle;collapsible=0;dropTarget=0;pointerEvents=0;fillColor=none;top=0;left=0;bottom=0;right=0;points=[[0,0.5],[1,0.5]];portConstraint=eastwest;" vertex="1" parent="wfhcFxgOFbOCd524HvgT-1604">
          <mxGeometry y="90" width="180" height="30" as="geometry" />
        </mxCell>
        <mxCell id="wfhcFxgOFbOCd524HvgT-1612" value="" style="shape=partialRectangle;connectable=0;fillColor=none;top=0;left=0;bottom=0;right=0;editable=1;overflow=hidden;" vertex="1" parent="wfhcFxgOFbOCd524HvgT-1611">
          <mxGeometry width="60" height="30" as="geometry" />
        </mxCell>
        <mxCell id="wfhcFxgOFbOCd524HvgT-1613" value="skillLevel" style="shape=partialRectangle;connectable=0;fillColor=none;top=0;left=0;bottom=0;right=0;align=left;spacingLeft=6;overflow=hidden;fontStyle=1" vertex="1" parent="wfhcFxgOFbOCd524HvgT-1611">
          <mxGeometry x="60" width="120" height="30" as="geometry" />
        </mxCell>
        <mxCell id="wfhcFxgOFbOCd524HvgT-1617" value="" style="edgeStyle=entityRelationEdgeStyle;fontSize=12;html=1;endArrow=ERzeroToMany;startArrow=ERmandOne;endSize=10;startSize=10;" edge="1" parent="1" source="wfhcFxgOFbOCd524HvgT-1556" target="wfhcFxgOFbOCd524HvgT-1601">
          <mxGeometry width="100" height="100" relative="1" as="geometry">
            <mxPoint x="70" y="550" as="sourcePoint" />
            <mxPoint x="170" y="450" as="targetPoint" />
          </mxGeometry>
        </mxCell>
        <mxCell id="wfhcFxgOFbOCd524HvgT-1618" value="" style="edgeStyle=entityRelationEdgeStyle;fontSize=12;html=1;endArrow=ERzeroToMany;startArrow=ERmandOne;endSize=10;startSize=10;" edge="1" parent="1">
          <mxGeometry width="100" height="100" relative="1" as="geometry">
            <mxPoint x="540" y="460" as="sourcePoint" />
            <mxPoint x="540" y="320" as="targetPoint" />
          </mxGeometry>
        </mxCell>
      </root>
    </mxGraphModel>
  </diagram>
</mxfile>
